<svg xmlns="http://www.w3.org/2000/svg" version="1.1" xmlns:xlink="http://www.w3.org/1999/xlink" xmlns:svgjs="http://svgjs.dev/svgjs" width="1000" height="196" viewBox="0 0 1000 196"><g transform="matrix(1,0,0,1,-0.6060302819696517,0.08186011570037977)"><svg viewBox="0 0 396 78" data-background-color="#c9efc7" preserveAspectRatio="xMidYMid meet" height="196" width="1000" xmlns="http://www.w3.org/2000/svg" xmlns:xlink="http://www.w3.org/1999/xlink"><g id="tight-bounds" transform="matrix(1,0,0,1,0.23998799165997298,-0.03257670346636132)"><svg viewBox="0 0 395.52 78.06500584398816" height="78.06500584398816" width="395.52"><g><svg viewBox="0 0 395.52 78.06500584398816" height="78.06500584398816" width="395.52"><g><svg viewBox="0 0 395.52 78.06500584398816" height="78.06500584398816" width="395.52"><g id="textblocktransform"><svg viewBox="0 0 395.52 78.06500584398816" height="78.06500584398816" width="395.52" id="textblock"><g><svg viewBox="0 0 395.52 28.825932164807647" height="28.825932164807647" width="395.52"><g transform="matrix(1,0,0,1,0,0)"><svg width="395.52" viewBox="0.5099999904632568 -38.22999954223633 643.4599609375 46.900001525878906" height="28.825932164807647" data-palette-color="#454545"><path d="M13.45-1Q12.82 0.27 11.77 0.27 10.72 0.27 10.72-0.81L10.72-0.81Q10.72-1.46 11.35-2.25L11.35-2.25Q12.62-3.76 13.77-5.74L13.77-5.74 15.01-7.96 0.51-34.55 14.75-34.55 21.73-19.82 27.98-30.93Q28.66-32.2 29.15-33.51 29.64-34.81 30.44-34.81L30.44-34.81Q31.45-34.81 31.45-33.81L31.45-33.81Q31.45-33.23 31.01-32.47L31.01-32.47 14.31-2.69Q14.04-2.2 13.87-1.88L13.87-1.88 13.45-1ZM44.99 0.46L44.99 0.46Q36.42 0.46 36.42-7.91L36.42-7.91 36.42-26.07 46.87-26.07 46.87-2.17Q47.12-2.05 47.48-2.05L47.48-2.05 48.29-2.05Q50.24-2.05 52.93-4.69L52.93-4.69Q53.73-5.49 54.44-6.45L54.44-6.45 54.44-26.07 64.94-26.07 64.94 0 54.44 0 54.44-3.76Q50.46 0.46 44.99 0.46ZM71.02-3.27L71.02-3.27Q71.02-3.64 71.27-3.94 71.53-4.25 71.94-4.25 72.36-4.25 72.63-4L72.63-4Q72.63-4 73.24-3.44L73.24-3.44Q75.78-1.22 80.34-1.22L80.34-1.22Q83.42-1.22 84.3-2.49L84.3-2.49Q84.54-2.83 84.54-3.19 84.54-3.54 84.41-3.87 84.27-4.2 83.83-4.68 83.39-5.15 82.59-5.81L82.59-5.81 80.44-7.54Q75.12-11.69 73.14-14.28L73.14-14.28Q71.33-16.65 71.33-19.12L71.33-19.12Q71.33-22.22 74.19-24.32L74.19-24.32Q77.14-26.51 81.83-26.51L81.83-26.51Q85.13-26.51 87.03-25.76 88.94-25 89.72-24.38 90.5-23.75 90.5-23.24L90.5-23.24Q90.5-22.19 89.67-22.19L89.67-22.19Q89.28-22.19 88.95-22.47 88.62-22.75 87.64-23.43 86.66-24.1 85.05-24.49 83.44-24.88 82.05-24.88 80.66-24.88 80.09-24.44 79.51-24 79.51-23.57 79.51-23.14 79.68-22.77 79.85-22.39 80.32-21.88L80.32-21.88Q81.39-20.61 83.76-18.87 86.13-17.14 87.76-15.7 89.4-14.26 90.33-13.04L90.33-13.04Q92.01-10.84 92.01-8.59 92.01-6.35 91.18-4.75 90.35-3.15 88.81-2L88.81-2Q85.57 0.46 80.15 0.46L80.15 0.46Q75.8 0.46 72.9-1.2L72.9-1.2Q71.02-2.25 71.02-3.27ZM106.44 0.46L106.44 0.46Q97.87 0.46 97.87-7.91L97.87-7.91 97.87-26.07 108.32-26.07 108.32-2.17Q108.56-2.05 108.93-2.05L108.93-2.05 109.73-2.05Q111.69-2.05 114.37-4.69L114.37-4.69Q115.18-5.49 115.89-6.45L115.89-6.45 115.89-26.07 126.38-26.07 126.38 0 115.89 0 115.89-3.76Q111.91 0.46 106.44 0.46ZM150.97 0.46L150.97 0.46Q147.57 0.46 144.4-1.07L144.4-1.07 144.4 7.81 134.37 7.81 134.37-26.07 144.4-26.07 144.4-24.73Q147.6-26.51 150.94-26.51 154.29-26.51 156.85-25.51 159.41-24.51 161.24-22.75L161.24-22.75Q165.03-19.04 165.03-13.26L165.03-13.26Q165.03-7.42 161.29-3.56L161.29-3.56Q157.44 0.46 150.97 0.46ZM150.89-24.73L150.89-24.73Q147.28-24.73 144.4-22.73L144.4-22.73 144.4-3.25Q147.7-1.34 151.58-1.34L151.58-1.34 152.21-1.34Q152.5-1.34 152.77-1.39L152.77-1.39 152.77-24.58Q151.85-24.73 150.89-24.73ZM191.22-26.51L191.22-26.51Q199.82-26.51 199.82-18.16L199.82-18.16 199.82 0 189.32 0 189.32-23.75Q188.88-24.05 188.16-24.05 187.44-24.05 186.66-23.71 185.88-23.36 185.02-22.75L185.02-22.75Q183.19-21.41 181.77-19.38L181.77-19.38 181.77 0 171.28 0 171.28-34.55 181.77-34.55 181.77-21.95Q185.95-26.51 191.22-26.51ZM240.44-2.1L240.44-2.1Q241.68-2.1 241.68-1.12L241.68-1.12Q241.68-0.68 241.14-0.34 240.61 0 239.29 0L239.29 0 218.61 0 218.61-34.55Q228.23-34.55 237.85-34.55L237.85-34.55 239.85-34.62Q241.68-34.62 241.68-33.54L241.68-33.54Q241.68-33.13 241.38-32.78 241.07-32.42 240.68-32.42L240.68-32.42Q240.05-32.42 239.34-32.57L239.34-32.57Q238.29-32.79 236.46-32.79L236.46-32.79 231.06-32.79 231.06-25.34 235.5-25.34Q235.5-25.34 238.51-25.46L238.51-25.46Q239.05-25.46 239.42-25.21 239.8-24.95 239.8-24.49L239.8-24.49Q239.8-23.46 238.43-23.46L238.43-23.46 237.38-23.49Q236.58-23.56 236.04-23.56L236.04-23.56 231.06-23.56 231.06-1.78 236.46-1.78Q238.26-1.78 239.02-1.93L239.02-1.93Q239.92-2.1 240.44-2.1ZM257.4 1.1L244-26.07 255.06-26.07 261.7-12.38 265.87-20.68Q267.17-23.34 267.5-24.63 267.83-25.93 268.16-26.22 268.49-26.51 268.96-26.51 269.44-26.51 269.71-26.2 269.98-25.88 269.98-25.56 269.98-25.24 269.91-24.93 269.85-24.61 269.68-24.07L269.68-24.07Q269.32-23.07 268.14-20.61L268.14-20.61 257.4 1.1ZM296.88-5.93L296.88-5.93Q297.83-5.93 297.83-5.05L297.83-5.05Q297.83-4.39 296.97-3.49L296.97-3.49Q293.12 0.46 286.4 0.46L286.4 0.46Q280.37 0.46 276.25-3.17L276.25-3.17Q271.97-6.96 271.97-12.74L271.97-12.74Q271.97-18.65 275.83-22.46L275.83-22.46Q279.91-26.51 286.67-26.51L286.67-26.51Q292.09-26.51 295.78-23.22L295.78-23.22Q299.76-19.68 299.76-13.92L299.76-13.92Q299.76-13.09 299.71-12.16L299.71-12.16 283.6-12.16 283.6-1.68Q285.26-1.34 287.33-1.34L287.33-1.34Q291.73-1.34 294.83-4.25L294.83-4.25Q295.46-4.88 295.73-5.25L295.73-5.25Q296.29-5.93 296.88-5.93ZM290.36-13.94L290.36-24.27Q288.77-24.73 286.77-24.73 284.77-24.73 283.6-24.46L283.6-24.46 283.6-13.94 290.36-13.94ZM324.02 0L324.02-23.41Q323.41-23.8 322.7-23.8 322-23.8 321.24-23.47 320.48-23.14 319.65-22.56L319.65-22.56Q317.92-21.31 316.45-19.24L316.45-19.24 316.45 0 305.96 0 305.96-26.07 316.45-26.07 316.45-21.9Q320.63-26.51 325.9-26.51L325.9-26.51Q334.52-26.51 334.52-18.16L334.52-18.16 334.52 0 324.02 0ZM352.54 0.46L352.54 0.46Q342.97 0.46 342.97-8.28L342.97-8.28 342.94-24.29 340.13-24.17Q338.82-24.17 338.82-25.17 338.82-26.17 340.23-26.17L340.23-26.17 342.58-26.07 342.94-26.07 342.94-29.86 353.41-34.55 353.41-26.07 356.69-26.07 359.01-26.17Q360.45-26.17 360.45-25.15L360.45-25.15Q360.45-24.68 360.04-24.43 359.64-24.17 359.13-24.17L359.13-24.17 356.1-24.29 353.41-24.29 353.41-1.34Q356.27-1.39 358.18-2.98L358.18-2.98Q359.08-3.66 359.46-4.74 359.84-5.81 360.14-6.12 360.45-6.42 360.86-6.42L360.86-6.42Q361.28-6.42 361.57-6.09 361.86-5.76 361.86-5.31 361.86-4.86 361.62-4.31 361.37-3.76 360.89-3.15L360.89-3.15Q359.79-1.78 358.35-0.98L358.35-0.98Q355.73 0.46 352.54 0.46ZM364.11-3.27L364.11-3.27Q364.11-3.64 364.36-3.94 364.62-4.25 365.03-4.25 365.45-4.25 365.72-4L365.72-4Q365.72-4 366.33-3.44L366.33-3.44Q368.87-1.22 373.43-1.22L373.43-1.22Q376.51-1.22 377.39-2.49L377.39-2.49Q377.63-2.83 377.63-3.19 377.63-3.54 377.5-3.87 377.36-4.2 376.92-4.68 376.48-5.15 375.68-5.81L375.68-5.81 373.53-7.54Q368.21-11.69 366.23-14.28L366.23-14.28Q364.42-16.65 364.42-19.12L364.42-19.12Q364.42-22.22 367.28-24.32L367.28-24.32Q370.23-26.51 374.92-26.51L374.92-26.51Q378.22-26.51 380.12-25.76 382.03-25 382.81-24.38 383.59-23.75 383.59-23.24L383.59-23.24Q383.59-22.19 382.76-22.19L382.76-22.19Q382.37-22.19 382.04-22.47 381.71-22.75 380.73-23.43 379.76-24.1 378.14-24.49 376.53-24.88 375.14-24.88 373.75-24.88 373.18-24.44 372.6-24 372.6-23.57 372.6-23.14 372.77-22.77 372.94-22.39 373.41-21.88L373.41-21.88Q374.48-20.61 376.85-18.87 379.22-17.14 380.85-15.7 382.49-14.26 383.42-13.04L383.42-13.04Q385.1-10.84 385.1-8.59 385.1-6.35 384.27-4.75 383.44-3.15 381.9-2L381.9-2Q378.66 0.46 373.24 0.46L373.24 0.46Q368.89 0.46 365.99-1.2L365.99-1.2Q364.11-2.25 364.11-3.27ZM418.72 0.46L418.72 0.46Q415.32 0.46 412.15-1.07L412.15-1.07 412.15 7.81 402.11 7.81 402.11-26.07 412.15-26.07 412.15-24.73Q415.35-26.51 418.69-26.51 422.04-26.51 424.6-25.51 427.16-24.51 428.99-22.75L428.99-22.75Q432.78-19.04 432.78-13.26L432.78-13.26Q432.78-7.42 429.04-3.56L429.04-3.56Q425.18 0.46 418.72 0.46ZM418.64-24.73L418.64-24.73Q415.03-24.73 412.15-22.73L412.15-22.73 412.15-3.25Q415.44-1.34 419.33-1.34L419.33-1.34 419.96-1.34Q420.25-1.34 420.52-1.39L420.52-1.39 420.52-24.58Q419.59-24.73 418.64-24.73ZM439.03 0L439.03-34.55 449.52-34.55 449.52 0 439.03 0ZM473.84 0L473.84-1.61Q470.71 0.46 466.9 0.46L466.9 0.46Q461.85 0.46 458.8-2.08L458.8-2.08Q455.62-4.69 455.62-9.33L455.62-9.33Q455.62-13.43 458.77-16.06L458.77-16.06Q462-18.73 467.25-18.73L467.25-18.73Q470.76-18.73 473.84-17.38L473.84-17.38 473.84-24.1Q471.62-24.73 469.92-24.73 468.22-24.73 467.05-24.58 465.88-24.44 464.83-24.15L464.83-24.15Q462.56-23.51 461.39-22.44L461.39-22.44Q460.7-21.8 460.14-21.8 459.58-21.8 459.29-22.08 458.99-22.36 458.99-22.71 458.99-23.05 459.12-23.33 459.24-23.61 459.58-23.9L459.58-23.9Q460.31-24.54 462.02-25.17L462.02-25.17Q465.56-26.51 469.13-26.51L469.13-26.51Q479.96-26.51 482.97-21.34L482.97-21.34Q484.29-19.04 484.29-15.31L484.29-15.31 484.29 0 473.84 0ZM473.84-3.71L473.84-15.48Q470.76-16.97 467.71-16.97L467.71-16.97Q467.22-16.97 466.78-16.89L466.78-16.89 466.78-1.37Q466.9-1.34 467.05-1.34 467.2-1.34 467.34-1.34L467.34-1.34Q470.69-1.34 473.84-3.71L473.84-3.71ZM509.99 0L509.99-23.41Q509.38-23.8 508.67-23.8 507.97-23.8 507.21-23.47 506.45-23.14 505.62-22.56L505.62-22.56Q503.89-21.31 502.42-19.24L502.42-19.24 502.42 0 491.93 0 491.93-26.07 502.42-26.07 502.42-21.9Q506.6-26.51 511.87-26.51L511.87-26.51Q520.49-26.51 520.49-18.16L520.49-18.16 520.49 0 509.99 0ZM546.54 0L546.54-23.41Q545.93-23.8 545.22-23.8 544.51-23.8 543.75-23.47 543-23.14 542.17-22.56L542.17-22.56Q540.43-21.31 538.97-19.24L538.97-19.24 538.97 0 528.47 0 528.47-26.07 538.97-26.07 538.97-21.9Q543.14-26.51 548.42-26.51L548.42-26.51Q557.04-26.51 557.04-18.16L557.04-18.16 557.04 0 546.54 0ZM570.14-30.35Q567.63-30.35 566.21-31.47 564.8-32.59 564.8-34.42L564.8-34.42Q564.8-35.96 566.36-37.06L566.36-37.06Q568.02-38.23 569.87-38.23 571.73-38.23 572.74-37.87 573.76-37.5 574.46-36.91L574.46-36.91Q575.88-35.72 575.88-34.13L575.88-34.13Q575.88-32.54 574.27-31.45L574.27-31.45Q572.66-30.35 570.14-30.35ZM565.02 0L565.02-26.07 575.51-26.07 575.51 0 565.02 0ZM601.56 0L601.56-23.41Q600.95-23.8 600.24-23.8 599.53-23.8 598.78-23.47 598.02-23.14 597.19-22.56L597.19-22.56Q595.46-21.31 593.99-19.24L593.99-19.24 593.99 0 583.49 0 583.49-26.07 593.99-26.07 593.99-21.9Q598.17-26.51 603.44-26.51L603.44-26.51Q612.06-26.51 612.06-18.16L612.06-18.16 612.06 0 601.56 0ZM625.36-7.96L625.36-7.96Q623.19-7.3 623.19-6.52L623.19-6.52Q623.19-5.76 624.46-5.47L624.46-5.47Q626.93-4.88 631.25-4.77 635.57-4.66 637.75-4.11 639.94-3.56 641.23-2.73L641.23-2.73Q643.58-1.2 643.58 1.34L643.58 1.34Q643.58 4.52 640.43 6.49L640.43 6.49Q636.93 8.67 630.59 8.67L630.59 8.67Q624.02 8.67 619.75 6.71L619.75 6.71Q618.21 5.96 618.21 5L618.21 5Q618.21 4.59 618.51 4.35 618.82 4.1 619.16 4.1L619.16 4.1Q619.58 4.1 620.11 4.42L620.11 4.42Q621.36 5.13 622.42 5.6 623.48 6.08 625.75 6.52 628.02 6.96 630.14 6.96 632.25 6.96 633.58 6.77 634.91 6.59 635.79 6.35L635.79 6.35Q637.52 5.83 637.52 5.2L637.52 5.2Q637.52 4.61 637.18 4.35 636.84 4.08 636.29 3.87 635.74 3.66 634.76 3.49L634.76 3.49Q632.76 3.15 629.32 2.98 625.88 2.81 623.87 2.31 621.87 1.81 620.6 1.03L620.6 1.03Q618.14-0.46 618.14-3L618.14-3Q618.14-6.67 623.09-8.94L623.09-8.94Q620.82-10.18 619.48-12.22 618.14-14.26 618.14-16.64 618.14-19.02 619.03-20.76 619.92-22.51 621.53-23.78L621.53-23.78Q624.92-26.51 630.29-26.51L630.29-26.51Q632.69-26.51 635.1-25.78L635.1-25.78Q638.57-29.13 641.52-29.13L641.52-29.13Q642.77-29.13 643.37-28.71 643.97-28.3 643.97-27.66L643.97-27.66Q643.97-27.03 643.55-26.75 643.14-26.46 642.77-26.46L642.77-26.46Q642.11-26.46 641.65-26.61L641.65-26.61Q640.96-26.86 640.26-26.86L640.26-26.86Q638.94-26.86 636.93-25.02L636.93-25.02Q640.91-23.07 642.13-19.41L642.13-19.41Q642.53-18.19 642.53-16.42 642.53-14.65 641.5-12.89 640.47-11.13 638.77-9.86L638.77-9.86Q635.2-7.23 630.39-7.23L630.39-7.23Q627.85-7.18 625.36-7.96ZM630.49-24.78L630.49-9.01Q634.44-9.06 637.3-10.94L637.3-10.94Q640.6-13.09 640.6-16.75 640.6-20.41 637.35-22.66L637.35-22.66Q634.37-24.71 630.49-24.78L630.49-24.78Z" opacity="1" transform="matrix(1,0,0,1,0,0)" fill="#454545" class="wordmark-text-0" data-fill-palette-color="primary" id="text-0"></path></svg></g></svg></g><g transform="matrix(1,0,0,1,0,42.436153688285906)"><svg viewBox="0 0 395.52 35.62885215570225" height="35.62885215570225" width="395.52"><path d="M395.52 0l-5.938 17.814 5.938 17.815h-395.52l5.938-17.815-5.938-17.814z" data-fill-palette-color="tertiary" opacity="1" fill="#454545"></path><g transform="matrix(1,0,0,1,143.22035885942114,6.80511076173913)"><svg width="109.07928228115767" viewBox="1.7999999523162842 -36.400001525878906 247.42999267578125 49.95000076293945" height="22.01863063222399" data-palette-color="#c9efc7"><path d="M13.55 0.8L13.55 0.8Q11.35 0.8 9.25 0.28 7.15-0.25 5.48-1.43 3.8-2.6 2.8-4.48 1.8-6.35 1.8-9L1.8-9Q1.8-12.25 3.93-14.75 6.05-17.25 9.65-18.8L9.65-18.8Q8.35-20.5 7.5-21.98 6.65-23.45 6.25-24.93 5.85-26.4 5.85-27.95L5.85-27.95Q5.9-31.55 8.5-33.68 11.1-35.8 15.1-35.8L15.1-35.8Q17.65-35.8 19.53-34.88 21.4-33.95 22.43-32.38 23.45-30.8 23.45-28.8L23.45-28.8Q23.45-26.95 22.65-25.25 21.85-23.55 20.05-21.98 18.25-20.4 15.25-18.85L15.25-18.85Q16.6-17.45 18.23-15.75 19.85-14.05 21.5-12.43 23.15-10.8 24.5-9.5L24.5-9.5Q24.75-10.4 24.88-11.23 25-12.05 25-12.7L25-12.7Q25-13.85 24.68-14.98 24.35-16.1 23.53-16.88 22.7-17.65 21.2-17.7L21.2-17.7 21.2-19.35 29.95-19.35 29.95-17.3 25.8-17.5Q26.6-16.85 26.95-15.8 27.3-14.75 27.35-13.35L27.35-13.35Q27.4-12.4 27.18-10.93 26.95-9.45 26.35-7.85L26.35-7.85Q26.9-7.35 27.53-6.78 28.15-6.2 28.85-5.6L28.85-5.6Q31.1-3.6 32.73-2.63 34.35-1.65 35.15-1.65L35.15-1.65 35.15 0 30.5 0Q30.05 0 28.48-0.93 26.9-1.85 24.3-4.15L24.3-4.15Q22.7-2.1 20.08-0.65 17.45 0.8 13.55 0.8ZM14.15-1.7L14.15-1.7Q17.3-1.6 19.38-2.73 21.45-3.85 22.7-5.55L22.7-5.55Q22.35-5.9 22-6.23 21.65-6.55 21.25-6.9L21.25-6.9Q17.9-10.2 15.33-12.75 12.75-15.3 10.95-17.35L10.95-17.35Q9.35-16.4 8.45-15 7.55-13.6 7.18-12.2 6.8-10.8 6.8-9.75L6.8-9.75Q6.8-7 7.88-5.25 8.95-3.5 10.63-2.65 12.3-1.8 14.15-1.7ZM14.15-20.05L14.15-20.05Q16.95-21.9 18.3-24.18 19.65-26.45 19.65-28.65L19.65-28.65Q19.65-31.05 18.4-32.63 17.15-34.2 14.85-34.2L14.85-34.2Q12.8-34.2 11.43-32.68 10.05-31.15 10.05-28.35L10.05-28.35Q10.05-26.2 11.23-24.1 12.4-22 14.15-20.05ZM80.09-23.85L78.3-23.85Q77.8-28.55 75.02-31.15 72.25-33.75 67.9-33.75L67.9-33.75Q65.25-33.75 62.92-32.63 60.6-31.5 58.85-29.4 57.1-27.3 56.1-24.35 55.1-21.4 55.1-17.7L55.1-17.7Q55.1-13 56.9-9.4 58.7-5.8 61.75-3.8 64.8-1.8 68.5-1.8L68.5-1.8Q71.75-1.8 74.9-3.28 78.05-4.75 80.05-7.55L80.05-7.55 81.34-6.5Q79.2-3.55 76.7-1.95 74.2-0.35 71.72 0.23 69.25 0.8 67.2 0.8L67.2 0.8Q63.45 0.8 60.32-0.55 57.2-1.9 54.92-4.33 52.65-6.75 51.42-9.98 50.2-13.2 50.2-16.95L50.2-16.95Q50.2-20.5 51.27-23.85 52.35-27.2 54.5-29.9 56.65-32.6 59.92-34.2 63.2-35.8 67.55-35.8L67.55-35.8Q70.34-35.8 72.84-35.05 75.34-34.3 77.65-32.75L77.65-32.75 77.4-35.45 80.09-35.45 80.09-23.85ZM107.39 0L100.24 0Q100.09-0.85 100.04-1.5 99.99-2.15 99.89-2.85L99.89-2.85Q98.19-1.15 96.22-0.18 94.24 0.8 92.04 0.8L92.04 0.8Q88.24 0.8 86.39-0.93 84.54-2.65 84.54-5.15L84.54-5.15Q84.54-7.45 85.97-9.13 87.39-10.8 89.67-11.88 91.94-12.95 94.62-13.48 97.29-14 99.79-13.95L99.79-13.95 99.79-17.05Q99.79-18.8 99.49-20.35 99.19-21.9 98.19-22.9 97.19-23.9 94.99-23.95L94.99-23.95Q93.54-24 92.02-23.4 90.49-22.8 89.79-21.35L89.79-21.35Q90.19-20.95 90.32-20.43 90.44-19.9 90.44-19.45L90.44-19.45Q90.44-18.85 89.94-18.07 89.44-17.3 88.19-17.35L88.19-17.35Q87.14-17.35 86.59-18.07 86.04-18.8 86.04-19.8L86.04-19.8Q86.04-21.5 87.32-22.85 88.59-24.2 90.84-25 93.09-25.8 95.94-25.8L95.94-25.8Q100.14-25.8 102.14-23.58 104.14-21.35 104.09-16.55L104.09-16.55Q104.09-14.7 104.09-12.83 104.09-10.95 104.07-9.08 104.04-7.2 104.04-5.3L104.04-5.3Q104.04-4.5 103.99-3.7 103.94-2.9 103.84-1.9L103.84-1.9Q104.74-1.95 105.62-2 106.49-2.05 107.39-2.1L107.39-2.1 107.39 0ZM99.79-12.25L99.79-12.25Q98.09-12.2 96.22-11.83 94.34-11.45 92.77-10.7 91.19-9.95 90.22-8.72 89.24-7.5 89.29-5.75L89.29-5.75Q89.39-3.9 90.52-2.98 91.64-2.05 93.19-2.05L93.19-2.05Q95.24-2.05 96.77-2.83 98.29-3.6 99.79-5L99.79-5Q99.74-5.55 99.74-6.2 99.74-6.85 99.74-7.55L99.74-7.55Q99.74-7.8 99.77-9.15 99.79-10.5 99.79-12.25ZM119.89 0.8L119.89 0.8Q118.74 0.8 117.54 0.48 116.34 0.15 115.32-0.8 114.29-1.75 113.69-3.58 113.09-5.4 113.09-8.4L113.09-8.4 113.19-22.9 109.34-22.85 109.34-25Q110.64-25.05 111.99-25.98 113.34-26.9 114.42-28.5 115.49-30.1 115.89-32L115.89-32 117.59-32 117.59-25 125.99-25 125.99-23.05 117.59-22.95 117.49-9.05Q117.49-6.8 117.87-5.23 118.24-3.65 119.09-2.85 119.94-2.05 121.29-2.05L121.29-2.05Q122.69-2.05 123.92-2.85 125.14-3.65 126.09-5.05L126.09-5.05 127.44-3.95Q126.34-2.3 125.27-1.35 124.19-0.4 123.19 0.08 122.19 0.55 121.34 0.68 120.49 0.8 119.89 0.8ZM141.94 0.8L141.94 0.8Q138.49 0.8 135.71-0.83 132.94-2.45 131.34-5.43 129.74-8.4 129.74-12.45L129.74-12.45Q129.74-15.95 131.31-19 132.89-22.05 135.74-23.93 138.59-25.8 142.34-25.8L142.34-25.8Q144.44-25.8 146.26-25.13 148.09-24.45 149.49-23.08 150.89-21.7 151.69-19.63 152.49-17.55 152.49-14.75L152.49-14.75 134.89-14.45Q134.89-10.65 135.71-7.78 136.54-4.9 138.39-3.33 140.24-1.75 143.14-1.75L143.14-1.75Q144.69-1.75 146.31-2.3 147.94-2.85 149.34-3.8 150.74-4.75 151.59-5.9L151.59-5.9 152.79-4.9Q151.44-2.8 149.54-1.55 147.64-0.3 145.64 0.25 143.64 0.8 141.94 0.8ZM135.04-16.55L135.04-16.55 147.79-16.55Q147.79-18.35 147.26-20.03 146.74-21.7 145.54-22.78 144.34-23.85 142.39-23.85L142.39-23.85Q139.49-23.85 137.56-22.13 135.64-20.4 135.04-16.55ZM156.94 0L156.94-1.5Q158.49-1.5 159.09-2.27 159.69-3.05 159.79-4.42 159.89-5.8 159.89-7.6L159.89-7.6 159.89-19Q159.89-19.8 159.91-20.6 159.94-21.4 160.09-22.25L160.09-22.25Q159.19-22.2 158.31-22.18 157.44-22.15 156.54-22.1L156.54-22.1 156.54-24.15 158.09-24.15Q160.24-24.15 161.06-24.58 161.89-25 162.44-25.5L162.44-25.5 163.89-25.5Q163.99-24.7 164.04-23.53 164.09-22.35 164.14-20.55L164.14-20.55Q164.89-21.8 166.19-23 167.49-24.2 169.11-25 170.74-25.8 172.54-25.8L172.54-25.8Q173.94-25.8 174.99-25.05 176.04-24.3 176.04-22.65L176.04-22.65Q176.04-22.25 175.79-21.68 175.54-21.1 174.99-20.68 174.44-20.25 173.54-20.25L173.54-20.25Q172.44-20.3 171.79-21.13 171.14-21.95 171.29-23.05L171.29-23.05Q170.04-23.1 168.71-22.4 167.39-21.7 166.24-20.48 165.09-19.25 164.19-17.6L164.19-17.6 164.24-5.3Q164.24-4.3 164.21-3.53 164.19-2.75 164.04-1.9L164.04-1.9Q164.84-1.95 165.61-1.98 166.39-2 167.19-2.05L167.19-2.05 167.19 0 156.94 0ZM178.58 0L178.58-1.5Q180.13-1.5 180.73-2.27 181.33-3.05 181.43-4.42 181.53-5.8 181.53-7.6L181.53-7.6 181.53-19Q181.53-19.8 181.58-20.53 181.63-21.25 181.73-22.25L181.73-22.25Q180.83-22.2 179.96-22.15 179.08-22.1 178.18-22.05L178.18-22.05 178.18-24.15Q180.38-24.15 181.58-24.35 182.78-24.55 183.41-24.85 184.03-25.15 184.38-25.5L184.38-25.5 185.83-25.5 185.83-5.3Q185.83-4.3 185.81-3.53 185.78-2.75 185.63-1.9L185.63-1.9Q186.43-1.95 187.21-1.98 187.98-2 188.78-2.05L188.78-2.05 188.78 0 178.58 0ZM183.43-30.45L183.43-30.45Q182.38-30.45 181.58-31.3 180.78-32.15 180.78-33.4L180.78-33.4Q180.78-34.65 181.61-35.52 182.43-36.4 183.48-36.4L183.48-36.4Q184.63-36.4 185.41-35.52 186.18-34.65 186.18-33.4L186.18-33.4Q186.18-32.15 185.36-31.3 184.53-30.45 183.43-30.45ZM202.83 0L192.63 0 192.63-1.5Q194.18-1.5 194.78-2.27 195.38-3.05 195.48-4.42 195.58-5.8 195.58-7.6L195.58-7.6 195.63-19Q195.63-19.8 195.66-20.6 195.68-21.4 195.83-22.25L195.83-22.25Q194.93-22.2 194.06-22.15 193.18-22.1 192.28-22.05L192.28-22.05 192.28-24.15Q194.48-24.15 195.61-24.35 196.73-24.55 197.28-24.85 197.83-25.15 198.18-25.5L198.18-25.5 199.63-25.5Q199.68-25.15 199.71-24.7 199.73-24.25 199.78-23.7 199.83-23.15 199.83-22.45L199.83-22.45Q200.93-23.4 202.26-24.15 203.58-24.9 205.06-25.35 206.53-25.8 207.98-25.8L207.98-25.8Q212.33-25.8 214.33-23.08 216.33-20.35 216.33-14.6L216.33-14.6 216.33-5.3Q216.33-4.3 216.31-3.53 216.28-2.75 216.13-1.9L216.13-1.9Q216.93-1.95 217.71-1.98 218.48-2 219.28-2.05L219.28-2.05 219.28 0 209.08 0 209.08-1.5Q210.63-1.5 211.23-2.27 211.83-3.05 211.93-4.42 212.03-5.8 212.03-7.6L212.03-7.6 212.03-14.6Q211.98-18.9 210.61-21.1 209.23-23.3 206.28-23.25L206.28-23.25Q204.48-23.2 202.76-22.3 201.03-21.4 199.88-20L199.88-20Q199.93-19.6 199.93-19.1 199.93-18.6 199.93-18.05L199.93-18.05 199.88-5.3Q199.88-4.3 199.86-3.53 199.83-2.75 199.68-1.9L199.68-1.9Q200.48-1.95 201.26-1.98 202.03-2 202.83-2.05L202.83-2.05 202.83 0ZM235.03 13.55L235.03 13.55Q230.53 13.55 227.78 12.55 225.03 11.55 223.78 10 222.53 8.45 222.53 6.8L222.53 6.8Q222.53 5.25 223.25 4.08 223.98 2.9 225.05 2.05 226.13 1.2 227.13 0.8L227.13 0.8Q225.53 0.25 224.6-0.68 223.68-1.6 223.68-3.15L223.68-3.15Q223.68-4.9 225.08-6.43 226.48-7.95 228.68-8.3L228.68-8.3Q226.38-9.4 225-11.35 223.63-13.3 223.63-15.9L223.63-15.9Q223.63-18.9 225.18-21.13 226.73-23.35 229.15-24.58 231.58-25.8 234.18-25.8L234.18-25.8Q235.83-25.8 237.48-25.33 239.13-24.85 240.53-23.95L240.53-23.95Q241.03-25.35 241.95-26.45 242.88-27.55 244.08-28.18 245.28-28.8 246.58-28.8L246.58-28.8Q247.88-28.8 248.55-28.13 249.23-27.45 249.23-26.3L249.23-26.3Q249.23-25.95 249.03-25.45 248.83-24.95 248.35-24.6 247.88-24.25 247.08-24.25L247.08-24.25Q246.23-24.25 245.68-24.75 245.13-25.25 244.98-26L244.98-26Q243.73-25.8 243.03-24.83 242.33-23.85 242.08-22.7L242.08-22.7Q243.28-21.6 244-20.05 244.73-18.5 244.73-16.75L244.73-16.75Q244.73-13.95 243.25-11.75 241.78-9.55 239.38-8.33 236.98-7.1 234.18-7.1L234.18-7.1Q233.23-7.1 232.53-7.23 231.83-7.35 230.83-7.35L230.83-7.35Q228.98-7.35 227.83-6.45 226.68-5.55 227.03-4.3L227.03-4.3Q227.43-3.1 229.48-2.78 231.53-2.45 234.98-2.3L234.98-2.3Q238.83-2.15 241.58-1.4 244.33-0.65 245.8 0.93 247.28 2.5 247.28 5.2L247.28 5.2Q247.28 7.2 246.2 8.78 245.13 10.35 243.35 11.4 241.58 12.45 239.4 13 237.23 13.55 235.03 13.55ZM234.98 11.6L234.98 11.6Q239.28 11.6 241.68 10 244.08 8.4 244.08 6.25L244.08 6.25Q244.08 4.4 242.83 3.43 241.58 2.45 239.43 2.08 237.28 1.7 234.48 1.65L234.48 1.65Q233.13 1.6 231.83 1.53 230.53 1.45 229.33 1.25L229.33 1.25Q227.98 2.15 227.23 3.45 226.48 4.75 226.48 6.2L226.48 6.2Q226.48 8.65 228.8 10.13 231.13 11.6 234.98 11.6ZM234.33-8.9L234.33-8.9Q236.18-8.9 237.4-9.8 238.63-10.7 239.25-12.25 239.88-13.8 239.88-15.75L239.88-15.75Q239.88-17.95 239.23-19.85 238.58-21.75 237.3-22.9 236.03-24.05 234.08-24.05L234.08-24.05Q231.38-24.05 229.9-22.03 228.43-20 228.43-17L228.43-17Q228.43-14.6 229.13-12.78 229.83-10.95 231.15-9.93 232.48-8.9 234.33-8.9Z" opacity="1" transform="matrix(1,0,0,1,0,0)" fill="#c9efc7" class="slogan-text-1" data-fill-palette-color="quaternary" id="text-1"></path></svg></g></svg></g></svg></g></svg></g></svg></g><defs></defs></svg><rect width="395.52" height="78.06500584398816" fill="none" stroke="none" visibility="hidden"></rect></g></svg></g></svg>